<svg xmlns="http://www.w3.org/2000/svg" x="0px" y="0px" width="64" height="64" viewBox="0 0 64 64">
<path fill="#fd3c4f" d="M32,6c-11.046,0-20,8.954-20,20c0,10.481,9.765,22.428,15.649,28.674	c2.358,2.503,6.345,2.503,8.703,0C42.235,48.428,52,36.481,52,26C52,14.954,43.046,6,32,6z M32,33c-3.866,0-7-3.134-7-7s3.134-7,7-7	s7,3.134,7,7S35.866,33,32,33z"></path><path fill="#fd3c4f" d="M32,6c-11.046,0-20,8.954-20,20c0,10.481,9.765,22.428,15.649,28.674	c2.358,2.503,6.345,2.503,8.703,0C42.235,48.428,52,36.481,52,26C52,14.954,43.046,6,32,6z"></path><ellipse cx="32" cy="61" opacity=".3" rx="19" ry="3"></ellipse><path d="M52,26c0-1.707-0.237-3.354-0.639-4.936C48.905,21.381,47,23.458,47,26	c0,6.403-5.208,15.604-14.288,25.246c-1.38,1.465-1.691,3.54-0.987,5.292c1.677,0.077,3.379-0.54,4.626-1.864	C42.235,48.428,52,36.481,52,26z" opacity=".15"></path><path fill="#fff" d="M17,26c0-8.271,6.729-15,15-15c2.543,0,4.619-1.905,4.936-4.361	C35.354,6.237,33.707,6,32,6c-11.046,0-20,8.954-20,20c0,1.619,0.234,3.272,0.65,4.935C15.101,30.613,17,28.539,17,26z" opacity=".3"></path><path fill="#fff" d="M17.258,21.278c-0.195,0-0.394-0.038-0.585-0.119c-0.763-0.323-1.119-1.203-0.796-1.966	c0.883-2.084,2.146-3.955,3.753-5.562c1.608-1.608,3.479-2.871,5.562-3.753c0.763-0.323,1.643,0.032,1.966,0.796	c0.323,0.763-0.033,1.643-0.796,1.966c-1.725,0.731-3.276,1.778-4.61,3.112c-1.333,1.333-2.38,2.884-3.111,4.61	C18.397,20.936,17.842,21.278,17.258,21.278z"></path><circle cx="32" cy="26" r="12" fill="#a0effe"></circle><circle cx="32" cy="26" r="7" fill="#9c34c2"></circle><circle cx="28" cy="22" r="3" fill="#fff"></circle>
</svg>