<svg xmlns="http://www.w3.org/2000/svg" x="0px" y="0px" width="64" height="64" viewBox="0 0 64 64">
<circle cx="32" cy="32" r="23" fill="#ffce29"></circle><ellipse cx="32" cy="61" opacity=".3" rx="19" ry="3"></ellipse><path fill="#fff" d="M32,14c2.577,0,4.674-1.957,4.946-4.461C35.352,9.19,33.699,9,32,9 C19.297,9,9,19.297,9,32c0,1.699,0.19,3.352,0.539,4.946C12.044,36.674,14,34.577,14,32C14,22.075,22.075,14,32,14z" opacity=".3"></path><path d="M54.461,27.054C51.956,27.326,50,29.423,50,32c0,9.925-8.075,18-18,18 c-2.577,0-4.674,1.957-4.946,4.461C28.648,54.81,30.301,55,32,55c12.703,0,23-10.297,23-23C55,30.301,54.81,28.648,54.461,27.054 z" opacity=".15"></path><path fill="none" stroke="#fff" stroke-linecap="round" stroke-linejoin="round" stroke-miterlimit="10" stroke-width="3" d="M15.047,23.427c1.878-3.699,4.932-6.705,8.666-8.522"></path><g><path fill="#9c34c2" d="M32.156,47c-0.546,0-0.996-0.184-1.353-0.551c-0.356-0.369-0.535-0.815-0.535-1.34v-1.857 c-1.217-0.082-2.293-0.277-3.228-0.582c-0.932-0.305-1.724-0.625-2.375-0.961c-0.589-0.292-0.956-0.707-1.102-1.242 c-0.149-0.535-0.123-1.05,0.077-1.542c0.2-0.494,0.535-0.85,1.009-1.071c0.471-0.22,1.032-0.174,1.683,0.141 c0.505,0.274,1.207,0.551,2.108,0.835s2.006,0.425,3.307,0.425c1.447,0,2.475-0.231,3.084-0.692 c0.607-0.464,0.912-1.04,0.912-1.732c0-0.566-0.21-1.04-0.63-1.417c-0.42-0.379-1.176-0.681-2.265-0.915l-3.463-0.756 c-3.819-0.838-5.728-2.874-5.728-6.105c0-1.765,0.597-3.253,1.793-4.47c1.196-1.217,2.802-1.983,4.816-2.298v-1.983 c0-0.525,0.179-0.971,0.535-1.34C31.16,17.184,31.611,17,32.156,17c0.525,0,0.966,0.184,1.322,0.551 c0.359,0.369,0.535,0.815,0.535,1.34v1.888c0.776,0.105,1.581,0.295,2.408,0.566c0.83,0.274,1.56,0.63,2.188,1.071 c0.505,0.315,0.815,0.717,0.93,1.212c0.115,0.492,0.067,0.961-0.141,1.401c-0.21,0.441-0.553,0.751-1.025,0.927 c-0.471,0.179-1.043,0.1-1.716-0.236c-0.566-0.272-1.184-0.505-1.857-0.692c-0.671-0.19-1.499-0.284-2.485-0.284 c-1.217,0-2.172,0.251-2.864,0.756c-0.694,0.505-1.04,1.155-1.04,1.952c0,0.566,0.205,1.032,0.615,1.401 c0.407,0.366,1.127,0.666,2.154,0.897l3.494,0.756c1.993,0.441,3.469,1.16,4.424,2.157c0.953,0.996,1.432,2.27,1.432,3.825 c0,1.783-0.605,3.251-1.811,4.406c-1.207,1.153-2.774,1.898-4.706,2.234v1.983c0,0.525-0.177,0.971-0.535,1.34 C33.122,46.816,32.682,47,32.156,47z"></path></g>
</svg>