<svg xmlns="http://www.w3.org/2000/svg" x="0px" y="0px" width="64" height="64" viewBox="0 0 64 64">
<path fill="#008aa9" d="M53.482,19.316l-42.82-0.199l4.68-6.463C16.094,11.615,17.299,11,18.581,11h26.837	c1.283,0,2.488,0.615,3.24,1.654L53.482,19.316z"></path><ellipse cx="32" cy="61" opacity=".3" rx="20" ry="3"></ellipse><path fill="#37d0ee" d="M51,30H13c-1.657,0-3-1.343-3-3v-6c0-1.657,1.343-3,3-3h38c1.657,0,3,1.343,3,3v6	C54,28.657,52.657,30,51,30z"></path><path fill="#37d0ee" d="M51,42H13c-1.657,0-3-1.343-3-3v-6c0-1.657,1.343-3,3-3h38c1.657,0,3,1.343,3,3v6	C54,40.657,52.657,42,51,42z"></path><path fill="#37d0ee" d="M51,54H13c-1.657,0-3-1.343-3-3v-6c0-1.657,1.343-3,3-3h38c1.657,0,3,1.343,3,3v6	C54,52.657,52.657,54,51,54z"></path><path fill="#fff" d="M33,11H18.581c-1.283,0-2.487,0.615-3.24,1.654l-4.68,6.463l0.02,0 C10.262,19.633,10,20.283,10,21v6c0,1.657,1.343,3,3,3c-1.297,0,2-0.303,2-3v-5.35L19.093,16H28C30.762,16,33,13.762,33,11z" opacity=".3"></path><path d="M54,51v-6c0-1.657-1.343-3-3-3c1.657,0,3-1.343,3-3v-6c0-1.657-1.343-3-3-3c1.297,0-2,0.303-2,3 v4.416c-1.766,0.771-3,2.533-3,4.584s1.234,3.812,3,4.584V49H35c-2.762,0-5,2.238-5,5h21C52.657,54,54,52.657,54,51z" opacity=".15"></path><circle cx="47" cy="24" r="2" fill="#9c34c2"></circle><path fill="#9c34c2" d="M37,26H20c-1.105,0-2-0.895-2-2v0c0-1.105,0.895-2,2-2h17c1.105,0,2,0.895,2,2v0	C39,25.105,38.105,26,37,26z"></path><circle cx="47" cy="36" r="2" fill="#9c34c2"></circle><path fill="#9c34c2" d="M37,38H20c-1.105,0-2-0.895-2-2v0c0-1.105,0.895-2,2-2h17c1.105,0,2,0.895,2,2v0	C39,37.105,38.105,38,37,38z"></path><circle cx="47" cy="48" r="2" fill="#9c34c2"></circle><path fill="#9c34c2" d="M37,50H20c-1.105,0-2-0.895-2-2v0c0-1.105,0.895-2,2-2h17c1.105,0,2,0.895,2,2v0	C39,49.105,38.105,50,37,50z"></path><line x1="14.5" x2="14.5" y1="21.5" y2="26.5" fill="none" stroke="#fff" stroke-linecap="round" stroke-linejoin="round" stroke-miterlimit="10" stroke-width="3"></line>
</svg>