<svg xmlns="http://www.w3.org/2000/svg" x="0px" y="0px" width="64" height="64" viewBox="0 0 64 64">
<path fill="#37d0ee" d="M48.217,55H15.783c-1.657,0-3-1.343-3-3v-3.783C12.783,37.604,21.386,29,32,29h0 c10.614,0,19.217,8.604,19.217,19.217V52C51.217,53.657,49.874,55,48.217,55z"></path><path fill="#fd3c4f" d="M30.496,35.011l-1.44,14.629c-0.037,0.375,0.033,0.753,0.202,1.09l1.848,3.695	c0.369,0.737,1.42,0.737,1.789,0l1.848-3.695c0.169-0.337,0.238-0.715,0.202-1.09L33.504,35.01L32,35.997L30.496,35.011z"></path><polygon fill="orange" points="32,36 26.753,29 37.219,29"></polygon><ellipse cx="32" cy="61" opacity=".3" rx="19" ry="3"></ellipse><path fill="#a0effe" d="M32,36l-5.365,1.533c-0.733,0.21-1.422-0.446-1.249-1.189l1.628-6.97L32,36z"></path><path fill="#a0effe" d="M32.004,36l5.365,1.533c0.733,0.21,1.422-0.446,1.249-1.189l-1.628-6.97L32.004,36z"></path><ellipse cx="32" cy="18.619" fill="#ffce29" rx="12" ry="12.381"></ellipse><path fill="#9c34c2" d="M23.78,13.069c0,0,4.387,0.984,8.226,0.984s8.226-0.984,8.226-0.984v0.613	c0,2.499,1.43,4.538,3.697,4.537l0.033-0.006c0.003-3.989-0.889-8.284-3.985-11.086c-4.591-4.153-11.352-4.153-15.942,0	c-3.097,2.801-3.999,8.063-3.999,11.086c0.013,0,0.002,0,0.016,0c2.266,0,3.728-2.025,3.728-4.523V13.069z"></path><path fill="#fff" d="M36.701,5.013c-4.167-1.829-9.078-1.132-12.666,2.114	c-1.223,1.106-2.087,2.601-2.705,4.184c0.82,0.53,1.758,0.816,2.707,0.816c1.195,0,2.396-0.426,3.352-1.292	c1.287-1.164,2.845-1.793,4.505-1.822C34.282,8.973,36.244,7.261,36.701,5.013z" opacity=".3"></path><path fill="none" stroke="#fff" stroke-linecap="round" stroke-linejoin="round" stroke-miterlimit="10" stroke-width="3" d="M26.383,9.722c0.97-0.878,2.101-1.513,3.305-1.871"></path><path d="M51.217,52v-3.783c0-4.961-1.896-9.468-4.982-12.878	c-2.021,1.413-2.752,4.12-1.59,6.371c1.043,2.021,1.572,4.21,1.572,6.506V50h-6.746c-2.762,0-5,2.239-5,5h13.746	C49.874,55,51.217,53.657,51.217,52z" opacity=".15"></path>
</svg>