<svg xmlns="http://www.w3.org/2000/svg" x="0px" y="0px" width="64" height="64" viewBox="0 0 64 64">
<ellipse cx="32" cy="61" opacity=".3" rx="23" ry="3"></ellipse><path fill="#ffce29" d="M27.993,42.873L16.325,37.14l12.789-26.028c0.487-0.991,1.686-1.4,2.677-0.913l8.078,3.969	c0.991,0.487,1.4,1.686,0.913,2.677L27.993,42.873z"></path><path fill="#98c900" d="M27.872,50.031l-6.5-11.258l25.115-14.5c0.957-0.552,2.18-0.225,2.732,0.732l4.5,7.794	c0.552,0.957,0.225,2.18-0.732,2.732L27.872,50.031z"></path><path fill="#37d0ee" d="M23,54H13c-1.657,0-3-1.343-3-3V41h13V54z"></path><path fill="#fd3c4f" d="M23,41H10V12c0-1.105,0.895-2,2-2h9c1.105,0,2,0.895,2,2V41z"></path><path fill="#9c34c2" d="M23,54V41h29c1.105,0,2,0.895,2,2v9c0,1.105-0.895,2-2,2H23z"></path><path fill="#fff" d="M10,12v19c2.761,0,5-2.239,5-5V15c2.761,0,5-2.239,5-5h-8C10.895,10,10,10.895,10,12z" opacity=".3"></path><path d="M54,52v-9c0-0.355-0.1-0.684-0.263-0.974C51.101,42.166,49,44.329,49,47v2H38c-2.761,0-5,2.239-5,5 h19C53.105,54,54,53.105,54,52z" opacity=".15"></path><circle cx="16.5" cy="47.5" r="2.5" fill="#9c34c2"></circle><line x1="13.5" x2="13.5" y1="15.5" y2="20.5" fill="none" stroke="#fff" stroke-linecap="round" stroke-linejoin="round" stroke-miterlimit="10" stroke-width="3"></line>
</svg>