<svg xmlns="http://www.w3.org/2000/svg" x="0px" y="0px" width="64" height="64" viewBox="0 0 64 64">
<path fill="#9c34c2" d="M53,54H35c-1.657,0-3-1.343-3-3V20c0-1.657,1.343-3,3-3h18c1.657,0,3,1.343,3,3v31	C56,52.657,54.657,54,53,54z"></path><path d="M56,51V33c-2.762,0-5,2.239-5,5v11h-1c-2.762,0-5,2.239-5,5h8C54.657,54,56,52.657,56,51z" opacity=".15"></path><path fill="#ffa1ac" d="M50,34H38c-0.552,0-1-0.448-1-1v-2c0-0.552,0.448-1,1-1h12c0.552,0,1,0.448,1,1v2	C51,33.552,50.552,34,50,34z"></path><path fill="#ffa1ac" d="M50,26H38c-0.552,0-1-0.448-1-1v-2c0-0.552,0.448-1,1-1h12c0.552,0,1,0.448,1,1v2	C51,25.552,50.552,26,50,26z"></path><path fill="#ffa1ac" d="M50,42H38c-0.552,0-1-0.448-1-1v-2c0-0.552,0.448-1,1-1h12c0.552,0,1,0.448,1,1v2	C51,41.552,50.552,42,50,42z"></path><path fill="#ffa1ac" d="M50,50H38c-0.552,0-1-0.448-1-1v-2c0-0.552,0.448-1,1-1h12c0.552,0,1,0.448,1,1v2	C51,49.552,50.552,50,50,50z"></path><path fill="#37d0ee" d="M35,54H11c-1.657,0-3-1.343-3-3V15c0-1.657,1.343-3,3-3h24c1.657,0,3,1.343,3,3v36	C38,52.657,36.657,54,35,54z"></path><path fill="#37d0ee" d="M34,13H12V9c0-1.105,0.895-2,2-2h18c1.105,0,2,0.895,2,2V13z"></path><path fill="#fff" d="M12,9v3h-1c-1.657,0-3,1.343-3,3v17c2.761,0,5-2.238,5-5V16.9c2.282-0.464,4-2.481,4-4.9	h4c2.761,0,5-2.238,5-5H14C12.895,7,12,7.895,12,9z" opacity=".3"></path><ellipse cx="32" cy="61" opacity=".3" rx="20.125" ry="3"></ellipse><path fill="#008aa9" d="M17,27h-2c-0.552,0-1-0.448-1-1v-2c0-0.552,0.448-1,1-1h2c0.552,0,1,0.448,1,1v2 C18,26.552,17.552,27,17,27z"></path><path fill="#008aa9" d="M24,27h-2c-0.552,0-1-0.448-1-1v-2c0-0.552,0.448-1,1-1h2c0.552,0,1,0.448,1,1v2 C25,26.552,24.552,27,24,27z"></path><path fill="#008aa9" d="M17,34h-2c-0.552,0-1-0.448-1-1v-2c0-0.552,0.448-1,1-1h2c0.552,0,1,0.448,1,1v2 C18,33.552,17.552,34,17,34z"></path><path fill="#008aa9" d="M24,34h-2c-0.552,0-1-0.448-1-1v-2c0-0.552,0.448-1,1-1h2c0.552,0,1,0.448,1,1v2 C25,33.552,24.552,34,24,34z"></path><path fill="#008aa9" d="M17,41h-2c-0.552,0-1-0.448-1-1v-2c0-0.552,0.448-1,1-1h2c0.552,0,1,0.448,1,1v2 C18,40.552,17.552,41,17,41z"></path><path fill="#008aa9" d="M24,41h-2c-0.552,0-1-0.448-1-1v-2c0-0.552,0.448-1,1-1h2c0.552,0,1,0.448,1,1v2 C25,40.552,24.552,41,24,41z"></path><path fill="#008aa9" d="M17,48h-2c-0.552,0-1-0.448-1-1v-2c0-0.552,0.448-1,1-1h2c0.552,0,1,0.448,1,1v2 C18,47.552,17.552,48,17,48z"></path><path fill="#008aa9" d="M24,48h-2c-0.552,0-1-0.448-1-1v-2c0-0.552,0.448-1,1-1h2c0.552,0,1,0.448,1,1v2 C25,47.552,24.552,48,24,48z"></path><path fill="#008aa9" d="M31,27h-2c-0.552,0-1-0.448-1-1v-2c0-0.552,0.448-1,1-1h2c0.552,0,1,0.448,1,1v2 C32,26.552,31.552,27,31,27z"></path><path fill="#008aa9" d="M28,20H18c-0.552,0-1-0.448-1-1v-2c0-0.552,0.448-1,1-1h10c0.552,0,1,0.448,1,1v2 C29,19.552,28.552,20,28,20z"></path><path fill="#008aa9" d="M31,34h-2c-0.552,0-1-0.448-1-1v-2c0-0.552,0.448-1,1-1h2c0.552,0,1,0.448,1,1v2 C32,33.552,31.552,34,31,34z"></path><path fill="#008aa9" d="M31,41h-2c-0.552,0-1-0.448-1-1v-2c0-0.552,0.448-1,1-1h2c0.552,0,1,0.448,1,1v2 C32,40.552,31.552,41,31,41z"></path><path fill="#008aa9" d="M31,48h-2c-0.552,0-1-0.448-1-1v-2c0-0.552,0.448-1,1-1h2c0.552,0,1,0.448,1,1v2 C32,47.552,31.552,48,31,48z"></path><path fill="#fff" d="M11.5,24c-0.829,0-1.5-0.672-1.5-1.5v-5c0-0.828,0.671-1.5,1.5-1.5s1.5,0.672,1.5,1.5v5	C13,23.328,12.329,24,11.5,24z"></path>
</svg>