<svg xmlns="http://www.w3.org/2000/svg" x="0px" y="0px" width="64" height="64" viewBox="0 0 64 64">
<path fill="#fd3c4f" d="M44.016,10h-24c-5.523,0-10,4.477-10,10v24c0,5.523,4.477,10,10,10h24c5.523,0,10-4.477,10-10V20	C54.016,14.477,49.539,10,44.016,10z"></path><ellipse cx="32" cy="61" opacity=".3" rx="19" ry="3"></ellipse><circle cx="43.016" cy="15" r="4" fill="#a61828"></circle><path fill="#4ccff1" d="M43.016,17c-1.657,0-3-1.343-3-3V8c0-1.657,1.343-3,3-3s3,1.343,3,3v6	C46.016,15.657,44.674,17,43.016,17z"></path><path fill="#4ccff1" d="M54.016,44V22h-44v22c0,5.523,4.477,10,10,10h24C49.539,54,54.016,49.523,54.016,44z"></path><circle cx="22.016" cy="15" r="4" fill="#a61828"></circle><path fill="#fff" d="M30.016,15c2.762,0,5-2.239,5-5h-15c-5.523,0-10,4.477-10,10	v20c2.762,0,5-2.239,5-5V20c0-2.757,2.243-5,5-5H30.016z" opacity=".3"></path><path d="M54.016,44V22c-2.762,0-5,2.239-5,5v17c0,2.757-2.243,5-5,5h-10	c-2.762,0-5,2.239-5,5h15C49.539,54,54.016,49.523,54.016,44z" opacity=".15"></path><path fill="#4ccff1" d="M22.016,17c-1.657,0-3-1.343-3-3V8c0-1.657,1.343-3,3-3s3,1.343,3,3v6	C25.016,15.657,23.674,17,22.016,17z"></path><path fill="#fff" d="M13.5,28c-0.828,0-1.5-0.747-1.5-1.671v-6.659C12,18.747,12.672,18,13.5,18s1.5,0.747,1.5,1.671	v6.659C15,27.252,14.328,28,13.5,28z"></path><path fill="#9c34c2" d="M29.75,42.75c-0.512,0-1.023-0.195-1.414-0.586l-5-5c-0.781-0.781-0.781-2.047,0-2.828 c0.781-0.781,2.047-0.781,2.828,0l3.586,3.586l8.086-8.085c0.781-0.781,2.047-0.781,2.828,0c0.781,0.781,0.781,2.047,0,2.828 l-9.5,9.5C30.773,42.555,30.261,42.75,29.75,42.75z"></path>
</svg>