<svg xmlns="http://www.w3.org/2000/svg" x="0px" y="0px" width="64" height="64" viewBox="0 0 64 64">
<ellipse cx="32.025" cy="61" opacity=".3" rx="23" ry="3"></ellipse><path fill="#37d0ee" d="M52.5,23h-25c-1.933,0-3.5-1.567-3.5-3.5v0c0-1.933,1.567-3.5,3.5-3.5h25c1.933,0,3.5,1.567,3.5,3.5	v0C56,21.433,54.433,23,52.5,23z"></path><path fill="#fff" d="M24,19.5c0,0.024,0.007,0.047,0.007,0.071C24.909,20.453,26.139,21,27.5,21H36	c2.761,0,5-2.239,5-5H27.5C25.567,16,24,17.567,24,19.5z" opacity=".3"></path><path fill="#9c34c2" d="M18.972,52h-8.944c-0.81,0-1.301-0.884-0.866-1.559l4.487-6.971c0.404-0.628,1.331-0.626,1.733,0.003	l4.457,6.971C20.272,51.119,19.78,52,18.972,52z"></path><path fill="#9c34c2" d="M17,24h-5c-1.105,0-2-0.895-2-2v-5c0-1.105,0.895-2,2-2h5c1.105,0,2,0.895,2,2v5	C19,23.105,18.105,24,17,24z"></path><line x1="29.5" x2="34.5" y1="19.5" y2="19.5" fill="none" stroke="#fff" stroke-linecap="round" stroke-linejoin="round" stroke-miterlimit="10" stroke-width="3"></line><path fill="#37d0ee" d="M52.5,37h-25c-1.933,0-3.5-1.567-3.5-3.5v0c0-1.933,1.567-3.5,3.5-3.5h25c1.933,0,3.5,1.567,3.5,3.5	v0C56,35.433,54.433,37,52.5,37z"></path><circle cx="14" cy="34" r="5" fill="#9c34c2"></circle><path fill="#37d0ee" d="M52.5,51h-25c-1.933,0-3.5-1.567-3.5-3.5v0c0-1.933,1.567-3.5,3.5-3.5h25c1.933,0,3.5,1.567,3.5,3.5	v0C56,49.433,54.433,51,52.5,51z"></path><path d="M55.993,47.5c0-0.024-0.007-0.047-0.007-0.071C55.084,46.547,53.854,46,52.493,46h-7.5	c-2.761,0-5,2.239-5,5h12.5C54.426,51,55.993,49.433,55.993,47.5z" opacity=".15"></path>
</svg>