<svg xmlns="http://www.w3.org/2000/svg" x="0px" y="0px" width="64" height="64" viewBox="0 0 64 64">
<path fill="orange" d="M22.597,9H13c-3.314,0-6,2.686-6,6v7l22-8l-2.499-3.123C25.552,9.69,24.116,9,22.597,9z"></path><path fill="#ffce29" d="M51,14H13c-3.314,0-6,2.686-6,6v26c0,3.314,2.686,6,6,6h38c3.314,0,6-2.686,6-6V20 C57,16.686,54.314,14,51,14z"></path><ellipse cx="32" cy="61" opacity=".3" rx="19" ry="3"></ellipse><path fill="#fff" d="M18,14c2.761,0,5-2.238,5-5H13c-3.314,0-6,2.686-6,6v14c2.761,0,5-2.238,5-5v-9 c0-0.552,0.449-1,1-1H18z" opacity=".3"></path><path d="M57,46V34c-2.761,0-5,2.238-5,5v7c0,0.552-0.449,1-1,1H40c-2.761,0-5,2.238-5,5h16 C54.314,52,57,49.314,57,46z" opacity=".15"></path><path fill="#fff" d="M11,20c-0.829,0-1.5-0.672-1.5-1.5V15c0-1.93,1.57-3.5,3.5-3.5h4.5c0.829,0,1.5,0.672,1.5,1.5 s-0.671,1.5-1.5,1.5H13c-0.276,0-0.5,0.225-0.5,0.5v3.5C12.5,19.328,11.829,20,11,20z"></path><g><path fill="#9c34c2" d="M32.259,43c-1.518,0-2.908-0.246-4.168-0.738s-2.343-1.192-3.252-2.095 c-0.907-0.905-1.608-1.984-2.1-3.24C22.246,35.673,22,34.276,22,32.738c0-2.159,0.446-4.04,1.338-5.644 c0.892-1.602,2.14-2.852,3.745-3.749C28.686,22.448,30.56,22,32.703,22c1.862,0,3.494,0.368,4.895,1.106 c1.4,0.738,2.484,1.779,3.251,3.12C41.616,27.567,42,29.142,42,30.952c0,1.366-0.192,2.548-0.576,3.548 c-0.383,1-0.919,1.773-1.608,2.321c-0.689,0.548-1.495,0.822-2.418,0.822c-1.58,0-2.59-0.659-3.029-1.976 c-0.422,0.667-0.924,1.163-1.503,1.488c-0.579,0.325-1.205,0.488-1.878,0.488c-1.268,0-2.253-0.405-2.957-1.215 c-0.704-0.808-1.057-1.912-1.057-3.309c0-1.159,0.215-2.19,0.646-3.094c0.43-0.905,1.021-1.616,1.772-2.131 c0.751-0.515,1.612-0.773,2.583-0.773c1.314,0,2.237,0.523,2.771,1.571l0.046-0.192c0.14-0.792,0.61-1.19,1.408-1.19 c0.439,0,0.759,0.124,0.963,0.368c0.203,0.248,0.265,0.601,0.188,1.06l-0.728,4.119c-0.109,0.587-0.165,1.048-0.165,1.382 c0,0.905,0.367,1.356,1.103,1.356c0.688,0,1.247-0.428,1.678-1.285c0.43-0.858,0.646-1.976,0.646-3.358 c0-2.19-0.638-3.877-1.914-5.059s-3.041-1.775-5.294-1.775c-1.691,0-3.158,0.355-4.401,1.06c-1.244,0.707-2.207,1.703-2.888,2.988 c-0.681,1.287-1.021,2.81-1.021,4.573c0,1.697,0.321,3.154,0.963,4.369c0.641,1.213,1.552,2.145,2.735,2.796 c1.181,0.651,2.578,0.977,4.19,0.977c0.954,0,1.834-0.11,2.64-0.333c0.807-0.223,1.546-0.539,2.219-0.951 c0.344-0.207,0.646-0.267,0.903-0.18c0.258,0.087,0.446,0.26,0.564,0.513c0.117,0.254,0.137,0.527,0.058,0.822 c-0.078,0.293-0.282,0.535-0.61,0.725c-0.704,0.461-1.549,0.829-2.535,1.108C34.512,42.86,33.431,43,32.259,43z M31.554,35.453 c0.799,0,1.447-0.37,1.948-1.108c0.501-0.738,0.75-1.711,0.75-2.916c0-1.397-0.595-2.097-1.784-2.097 c-0.813,0-1.48,0.347-1.996,1.037c-0.517,0.69-0.775,1.599-0.775,2.726c0,0.777,0.161,1.366,0.481,1.761 C30.501,35.253,30.958,35.453,31.554,35.453z"></path></g>
</svg>