<svg xmlns="http://www.w3.org/2000/svg" x="0px" y="0px" width="64" height="64" viewBox="0 0 64 64">
<ellipse cx="32" cy="61" opacity=".3" rx="20" ry="3"></ellipse><path fill="#9c34c2" d="M24.132,54h-3.991c-1.158,0-2.074-0.981-1.995-2.136l2.727-40C20.944,10.815,21.817,10,22.868,10	h3.991c1.158,0,2.074,0.981,1.995,2.136l-2.727,40C26.056,53.185,25.183,54,24.132,54z"></path><path fill="#9c34c2" d="M42.132,54h-3.991c-1.158,0-2.074-0.981-1.995-2.136l2.727-40C38.944,10.815,39.817,10,40.868,10	h3.991c1.158,0,2.074,0.981,1.995,2.136l-2.727,40C44.056,53.185,43.183,54,42.132,54z"></path><path fill="#9c34c2" d="M10.281,24.752l0.5-4C10.906,19.751,11.757,19,12.766,19h39.969c1.203,0,2.134,1.054,1.985,2.248	l-0.5,4C54.094,26.249,53.243,27,52.234,27H12.266C11.063,27,10.132,25.946,10.281,24.752z"></path><path fill="#9c34c2" d="M9.281,42.752l0.5-4C9.906,37.751,10.757,37,11.766,37h39.969c1.203,0,2.134,1.054,1.985,2.248	l-0.5,4C53.094,44.249,52.243,45,51.234,45H11.266C10.063,45,9.132,43.946,9.281,42.752z"></path><path fill="#fff" d="M26.86,10h-3.99c-1.05,0-1.93,0.81-2,1.86L20.39,19h-7.62	c-1.01,0-1.86,0.75-1.99,1.75l-0.5,4c-0.15,1.2,0.78,2.25,1.99,2.25h1.22c0.96-0.71,1.66-1.76,1.91-3h4.99	c2.63,0,4.81-2.04,4.99-4.66l0.29-4.38c1.24-0.17,2.33-0.79,3.1-1.69l0.08-1.13C28.93,10.98,28.02,10,26.86,10z" opacity=".3"></path><path d="M51.73,37h-1.22c-0.96,0.71-1.65,1.76-1.91,3h-3.99	c-2.63,0-4.81,2.04-4.99,4.66l-0.29,4.38c-1.24,0.17-2.33,0.79-3.1,1.69l-0.08,1.13C36.07,53.02,36.98,54,38.14,54h3.99	c1.05,0,1.93-0.81,2-1.86L44.61,45h6.62c1.01,0,1.86-0.75,1.99-1.75l0.5-4C53.87,38.05,52.94,37,51.73,37z" opacity=".15"></path><path fill="#fff" d="M24.002,21.5c-0.056,0-0.111-0.003-0.168-0.009c-0.823-0.092-1.416-0.834-1.325-1.657l0.5-4.5	c0.093-0.823,0.837-1.409,1.657-1.325c0.823,0.092,1.416,0.834,1.325,1.657l-0.5,4.5C25.405,20.933,24.756,21.5,24.002,21.5z"></path>
</svg>