<svg xmlns="http://www.w3.org/2000/svg" x="0px" y="0px" width="64" height="64" viewBox="0 0 64 64">
<path fill="#37d0ee" d="M55.172,42.359L34.828,53.366c-1.562,0.845-4.095,0.845-5.657,0L8.828,42.359	c-1.562-0.845-1.562-2.216,0-3.061l20.343-11.007c1.562-0.845,4.095-0.845,5.657,0l20.343,11.007	C56.734,40.143,56.734,41.514,55.172,42.359z"></path><path fill="#9c34c2" d="M55.172,37.359L34.828,48.366c-1.562,0.845-4.095,0.845-5.657,0L8.828,37.359	c-1.562-0.845-1.562-2.216,0-3.061l20.343-11.007c1.562-0.845,4.095-0.845,5.657,0l20.343,11.007	C56.734,35.143,56.734,36.514,55.172,37.359z"></path><path fill="#37d0ee" d="M55.172,32.359L34.828,43.366c-1.562,0.845-4.095,0.845-5.657,0L8.828,32.359	c-1.562-0.845-1.562-2.216,0-3.061l20.343-11.007c1.562-0.845,4.095-0.845,5.657,0l20.343,11.007	C56.734,30.143,56.734,31.514,55.172,32.359z"></path><path fill="#9c34c2" d="M55.172,27.359L34.828,38.366c-1.562,0.845-4.095,0.845-5.657,0L8.828,27.359	c-1.562-0.845-1.562-2.216,0-3.061l20.343-11.007c1.562-0.845,4.095-0.845,5.657,0l20.343,11.007	C56.734,25.143,56.734,26.514,55.172,27.359z"></path><ellipse cx="32" cy="61" opacity=".3" rx="24" ry="3"></ellipse><path fill="#37d0ee" d="M55.172,22.359L34.828,33.366c-1.562,0.845-4.095,0.845-5.657,0L8.828,22.359	c-1.562-0.845-1.562-2.216,0-3.061L29.172,8.291c1.562-0.845,4.095-0.845,5.657,0l20.343,11.007	C56.734,20.143,56.734,21.514,55.172,22.359z"></path><path d="M55.172,19.298l-2.425-1.312L32.52,28.935c-0.234,0.087-0.808,0.085-0.968,0.034l-4.835-2.616 c-2.434-1.316-5.463-0.409-6.777,2.018c0,0,0,0,0,0.001l9.232,4.995c1.562,0.845,4.095,0.845,5.657,0l20.343-11.007 C56.734,21.514,56.734,20.143,55.172,19.298z" opacity=".15"></path><path fill="#fff" d="M31.481,12.722c0.233-0.086,0.803-0.087,0.968-0.033l4.926,2.665 c2.43,1.314,5.463,0.409,6.776-2.018l-9.323-5.044c-1.562-0.845-4.095-0.845-5.657,0L8.828,19.298 c-1.562,0.845-1.562,2.216,0,3.061l2.424,1.312L31.481,12.722z" opacity=".3"></path><line x1="26.201" x2="30.837" y1="13.878" y2="11.369" fill="none" stroke="#fff" stroke-linecap="round" stroke-linejoin="round" stroke-miterlimit="10" stroke-width="3"></line>
</svg>