<svg xmlns="http://www.w3.org/2000/svg" x="0px" y="0px" width="64" height="64" viewBox="0 0 64 64">
<circle cx="32" cy="32" r="23" fill="#37d0ee"></circle><ellipse cx="32" cy="61" opacity=".3" rx="19" ry="3"></ellipse><path fill="#fff" d="M32,14c2.577,0,4.674-1.957,4.946-4.461C35.352,9.19,33.699,9,32,9	C19.297,9,9,19.297,9,32c0,1.699,0.19,3.352,0.539,4.946C12.044,36.674,14,34.577,14,32C14,22.075,22.075,14,32,14z" opacity=".3"></path><path d="M54.461,27.054C51.956,27.326,50,29.423,50,32c0,9.925-8.075,18-18,18	c-2.577,0-4.674,1.957-4.946,4.461C28.648,54.81,30.301,55,32,55c12.703,0,23-10.297,23-23C55,30.301,54.81,28.648,54.461,27.054z" opacity=".15"></path><circle cx="32" cy="32" r="18" fill="#a0effe"></circle><path fill="#fff" d="M15.046,24.927c-0.229,0-0.46-0.052-0.678-0.162c-0.739-0.375-1.034-1.278-0.659-2.017	c2.02-3.978,5.339-7.242,9.348-9.191c0.741-0.36,1.643-0.053,2.005,0.692s0.053,1.643-0.692,2.005	c-3.424,1.666-6.26,4.454-7.984,7.852C16.12,24.627,15.593,24.927,15.046,24.927z"></path><path fill="#9c34c2" d="M44.5,34H32.067c-0.825,0-1.496-0.667-1.5-1.493l-0.067-14c-0.004-0.828,0.664-1.503,1.493-1.507	c0.856,0,1.503,0.665,1.507,1.493L33.561,31H44.5c0.828,0,1.5,0.672,1.5,1.5S45.328,34,44.5,34z"></path><circle cx="32" cy="32" r="3" fill="orange"></circle><path fill="#008aa9" d="M52,41c-2,0-2.348,1.322-3,2c-0.557,0.58-1.431,0.565-2,0c-0.705-0.699-1-2-3-2c-2.739,0-4,1.956-4,5	c0,2.667,1.6,3.889,2.24,6.022C42.88,54.156,42.92,57,45,57c1.505,0,2.235-2.612,2.623-4.945c0.077-0.464,0.677-0.464,0.754,0	C48.765,54.388,49.495,57,51,57c2.08,0,2.12-2.844,2.76-4.978C54.4,49.889,56,48.667,56,46C56,42.956,54.739,41,52,41z"></path>
</svg>