<svg xmlns="http://www.w3.org/2000/svg" x="0px" y="0px" width="64" height="64" viewBox="0 0 64 64">
<path fill="#ffce29" d="M54,20v17c-0.01,0.34-0.05,0.67-0.12,1c-0.2,0.93-0.67,1.79-1.34,2.46L40.46,52.54	c-0.67,0.67-1.53,1.14-2.46,1.34c-0.33,0.07-0.66,0.11-1,0.12H20c-5.52,0-10-4.48-10-10V20c0-5.52,4.48-10,10-10h24	C49.52,10,54,14.48,54,20z"></path><ellipse cx="32" cy="61" opacity=".3" rx="20" ry="3"></ellipse><path fill="#bd6300" d="M53.88,38c-0.2,0.93-0.67,1.79-1.34,2.46L40.46,52.54c-0.67,0.67-1.53,1.14-2.46,1.34V41.8	c0-2.1,1.7-3.8,3.8-3.8H53.88z"></path><path fill="orange" d="M45.5,24h-27c-1.381,0-2.5-1.119-2.5-2.5v0c0-1.381,1.119-2.5,2.5-2.5h27c1.381,0,2.5,1.119,2.5,2.5	v0C48,22.881,46.881,24,45.5,24z"></path><path fill="orange" d="M45.5,33h-27c-1.381,0-2.5-1.119-2.5-2.5v0c0-1.381,1.119-2.5,2.5-2.5h27c1.381,0,2.5,1.119,2.5,2.5	v0C48,31.881,46.881,33,45.5,33z"></path><path fill="orange" d="M30.5,42h-12c-1.381,0-2.5-1.119-2.5-2.5v0c0-1.381,1.119-2.5,2.5-2.5h12c1.381,0,2.5,1.119,2.5,2.5	v0C33,40.881,31.881,42,30.5,42z"></path><path fill="#fff" d="M28,10c0,2.76-2.24,5-5,5h-3c-2.76,0-5,2.24-5,5v3c0,2.76-2.24,5-5,5v-8	c0-5.52,4.48-10,10-10H28z" opacity=".3"></path><path d="M54,30v7c-0.01,0.34-0.05,0.67-0.12,1c-0.2,0.93-0.67,1.79-1.34,2.46L40.46,52.54	c-0.67,0.67-1.53,1.14-2.46,1.34c-0.33,0.07-0.66,0.11-1,0.12h-7c0-2.76,2.24-5,5-5h1.89c0.02,0,0.04,0,0.07-0.01L49,36.93V35	C49,32.24,51.24,30,54,30z" opacity=".15"></path><path fill="#fff" d="M13.5,23c-0.829,0-1.5-0.672-1.5-1.5v-1.375C12,15.645,15.645,12,20.125,12	c0.829,0,1.5,0.672,1.5,1.5s-0.671,1.5-1.5,1.5C17.299,15,15,17.299,15,20.125V21.5C15,22.328,14.329,23,13.5,23z"></path>
</svg>