<svg xmlns="http://www.w3.org/2000/svg" x="0px" y="0px" width="64" height="64" viewBox="0 0 64 64">
<ellipse cx="32" cy="61" opacity=".3" rx="20.125" ry="3"></ellipse><path fill="#37d0ee" d="M48,56H17c-2.209,0-4-1.791-4-4V14c0-2.209,1.791-4,4-4h31c2.209,0,4,1.791,4,4v38	C52,54.209,50.209,56,48,56z"></path><path fill="#fff" d="M13,14v18c2.762,0,5-2.238,5-5V15.652c0-0.42,0.264-0.795,0.66-0.934	C20.605,14.033,22,12.18,22,10h-5C14.791,10,13,11.791,13,14z" opacity=".3"></path><path d="M52,52V31c-2.762,0-5,2.238-5,5v14c0,0.552-0.448,1-1,1h-9c-2.762,0-5,2.238-5,5h16	C50.209,56,52,54.209,52,52z" opacity=".15"></path><path fill="#9c34c2" d="M41,8h-2.025C38.987,7.834,39,7.669,39,7.5C39,3.91,36.09,1,32.5,1S26,3.91,26,7.5	c0,0.169,0.013,0.334,0.025,0.5H24c-1.105,0-2,0.895-2,2v3c0,1.105,0.895,2,2,2h17c1.105,0,2-0.895,2-2v-3C43,8.895,42.105,8,41,8z M32.5,10C31.119,10,30,8.881,30,7.5S31.119,5,32.5,5S35,6.119,35,7.5S33.881,10,32.5,10z"></path><path fill="#fff" d="M16.5,24c-0.829,0-1.5-0.672-1.5-1.5v-7c0-0.828,0.671-1.5,1.5-1.5s1.5,0.672,1.5,1.5v7	C18,23.328,17.329,24,16.5,24z"></path><path fill="#9c34c2" d="M27.761,24.863c2.6,0,4.212,1.586,4.212,4.888c0,3.198-1.846,4.888-4.316,4.888 c-2.626,0-4.264-1.689-4.264-4.888C23.393,26.631,25.317,24.863,27.761,24.863z M25.889,43.531l11.986-18.305 c0.208-0.338,0.624-0.572,1.066-0.572c0.676,0,1.248,0.572,1.248,1.274c0,0.234-0.078,0.494-0.208,0.676l-11.96,18.331 c-0.234,0.364-0.624,0.572-1.066,0.572c-0.702,0-1.274-0.572-1.274-1.274C25.681,43.974,25.759,43.714,25.889,43.531z M27.683,32.429c0.728,0,1.17-0.598,1.17-2.678c0-1.976-0.442-2.678-1.196-2.678c-0.754,0-1.196,0.624-1.196,2.678 C26.461,31.727,26.877,32.429,27.683,32.429z M38.395,35.523c2.6,0,4.212,1.586,4.212,4.888c0,3.198-1.846,4.889-4.316,4.889 c-2.626,0-4.264-1.69-4.264-4.889C34.027,37.291,35.951,35.523,38.395,35.523z M38.317,43.09c0.728,0,1.17-0.599,1.17-2.679 c0-1.976-0.442-2.678-1.196-2.678s-1.196,0.624-1.196,2.678C37.095,42.388,37.511,43.09,38.317,43.09z"></path>
</svg>