<svg xmlns="http://www.w3.org/2000/svg" x="0px" y="0px" width="64" height="64" viewBox="0 0 64 64">
<path fill="#98c900" d="M23.551,24.555C7.77,40.335,13.764,48.473,15.987,50.695c1.74,1.74,5.203,1.74,6.942,0 c0.084-0.084,3.967-3.967,3.967-3.967c1.74-1.739,2.975-4.959,0.992-6.942l-1.581-1.239c-0.96-0.96-1.244-2.305-0.393-3.363 c1.018-1.266,2.402-2.796,3.937-4.33s2.931-2.785,4.196-3.802c1.058-0.851,2.532-0.695,3.492,0.265l1.258,1.56 c1.739,1.74,4.211,1.739,5.951,0c0,0,4.875-4.875,4.959-4.959c1.74-1.74,1.74-5.203,0-6.942 C47.484,14.753,39.333,8.774,23.551,24.555z"></path><path d="M22.372,35.462c-1.704,2.174-1.323,5.316,0.851,7.021l0.433,0.339 c-0.082,0.127-0.18,0.258-0.294,0.371c0,0-3.894,3.894-3.978,3.978c-1.255,1.262-1.684,3.022-1.316,4.637 c1.696,0.431,3.676,0.074,4.862-1.112c0.084-0.084,3.967-3.967,3.967-3.967c1.74-1.739,2.975-4.959,0.992-6.942l-1.581-1.239 c-0.96-0.96-1.244-2.305-0.393-3.363c0.382-0.475,0.829-0.995,1.303-1.531C25.445,33.325,23.56,33.946,22.372,35.462z" opacity=".15"></path><path fill="none" stroke="#fff" stroke-linecap="round" stroke-linejoin="round" stroke-miterlimit="10" stroke-width="3" d="M43.161,17.63c-2.222-0.231-4.824,0.443-7.684,1.98"></path><ellipse cx="32" cy="61" opacity=".3" rx="19" ry="3"></ellipse><path fill="#fff" d="M30.755,24.65c6.775-5.694,12.406-7.214,15.448-4.171 c1.257,1.257,3.018,1.684,4.631,1.309c0.413-1.686,0.051-3.64-1.124-4.816c-2.206-2.206-10.241-8.115-25.788,7.221 C25.706,26.14,28.715,26.365,30.755,24.65z" opacity=".3"></path>
</svg>