<svg xmlns="http://www.w3.org/2000/svg" x="0px" y="0px" width="64" height="64" viewBox="0 0 64 64">
<ellipse cx="31.996" cy="61" opacity=".3" rx="18" ry="3"></ellipse><path fill="#9c34c2" d="M52.816,25.522L37.474,10.179c-1.562-1.562-4.095-1.562-5.657,0L10.172,31.824	c-1.562,1.562-1.562,4.095,0,5.657l15.343,15.343c1.562,1.562,4.095,1.562,5.657,0l21.645-21.645	C54.379,29.617,54.379,27.084,52.816,25.522z"></path><path fill="#9c34c2" d="M49.995,9L34.562,9.009L40.995,23l13,5.5V13C53.995,10.791,52.204,9,49.995,9z M47.495,18	c-1.381,0-2.5-1.119-2.5-2.5s1.119-2.5,2.5-2.5c1.381,0,2.5,1.119,2.5,2.5S48.877,18,47.495,18z"></path><path fill="#fff" d="M44.995,9c0,2.76-2.24,5-5,5h-4.101c-0.531,0-1.039,0.211-1.415,0.586L15.536,33.54	c-0.98,0.97-2.26,1.46-3.54,1.46c-1.04,0-2.08-0.32-2.95-0.97c0.13-0.81,0.51-1.59,1.13-2.21l21.64-21.64	c0.75-0.75,1.727-1.141,2.707-1.171L44.995,9z" opacity=".3"></path><path d="M53.995,18v10.5l-0.02-0.01c-0.04,0.98-0.41,1.94-1.16,2.69l-21.64,21.64	c-0.006,0.006-0.012,0.012-0.019,0.019c-1.021,1.008-2.849,0.406-3.091-1.008c-0.263-1.542,0.199-3.18,1.39-4.37l18.969-18.959	c0.353-0.353,0.552-0.831,0.553-1.331l0.008-4.18c0-2.76,2.24-4.99,5-4.99C53.986,18,53.986,18,53.995,18z" opacity=".15"></path><path fill="#fff" d="M28.496,20c-0.384,0-0.768-0.146-1.061-0.439c-0.586-0.585-0.586-1.536,0-2.121l4-4	c0.586-0.586,1.535-0.586,2.121,0c0.586,0.585,0.586,1.536,0,2.121l-4,4C29.264,19.854,28.88,20,28.496,20z"></path><path fill="#ffce29" d="M27.253,38.981c-1.214-1.214-1.894-2.612-2.039-4.193c-0.146-1.58,0.293-3.188,1.321-4.822 l-0.858-0.858c-0.245-0.245-0.368-0.53-0.367-0.858c0-0.328,0.117-0.607,0.35-0.841c0.233-0.233,0.513-0.351,0.841-0.35 c0.327,0.001,0.613,0.122,0.858,0.367l0.612,0.612c0.385-0.407,0.752-0.764,1.104-1.067l-0.631-0.631 c-0.245-0.245-0.368-0.53-0.367-0.858c-0.001-0.327,0.115-0.606,0.349-0.839c0.233-0.233,0.513-0.351,0.841-0.35 c0.328,0,0.613,0.122,0.858,0.367l0.858,0.858c1.634-1.027,3.24-1.465,4.815-1.314c1.576,0.153,2.971,0.836,4.185,2.049 c0.49,0.49,0.913,1.059,1.271,1.707c0.354,0.648,0.578,1.334,0.672,2.057c0.094,0.445,0.027,0.824-0.201,1.147 c-0.227,0.32-0.52,0.543-0.876,0.665s-0.702,0.107-1.042-0.045c-0.338-0.153-0.578-0.472-0.717-0.962 c-0.069-0.375-0.215-0.742-0.437-1.105c-0.222-0.362-0.48-0.688-0.772-0.98c-0.536-0.536-1.146-0.861-1.83-0.972 c-0.681-0.111-1.455,0.056-2.32,0.499l1.717,1.717c0.245,0.245,0.365,0.528,0.359,0.849c-0.007,0.321-0.126,0.598-0.359,0.832 c-0.233,0.233-0.512,0.352-0.83,0.358c-0.322,0.006-0.605-0.114-0.849-0.359l-2.013-2.013c-0.375,0.349-0.731,0.717-1.068,1.102 l1.996,1.996c0.245,0.245,0.363,0.529,0.359,0.849c-0.007,0.321-0.126,0.598-0.359,0.832c-0.233,0.233-0.512,0.352-0.832,0.359 c-0.322,0.006-0.605-0.114-0.849-0.359l-1.717-1.717c-0.443,0.865-0.613,1.641-0.507,2.329c0.105,0.689,0.427,1.302,0.963,1.838 c0.62,0.62,1.319,1.028,2.102,1.227c0.477,0.152,0.796,0.395,0.955,0.727c0.157,0.334,0.173,0.672,0.052,1.015 c-0.122,0.344-0.337,0.626-0.648,0.842c-0.309,0.216-0.685,0.289-1.129,0.219c-0.701-0.071-1.384-0.281-2.047-0.631 C28.356,39.927,27.768,39.496,27.253,38.981z"></path>
</svg>