<svg xmlns="http://www.w3.org/2000/svg" x="0px" y="0px" width="64" height="64" viewBox="0 0 64 64">
<ellipse cx="32" cy="61" opacity=".3" rx="18" ry="3"></ellipse><path fill="#98c900" d="M52.821,25.522L37.478,10.179c-1.562-1.562-4.095-1.562-5.657,0L10.176,31.824	c-1.562,1.562-1.562,4.095,0,5.657l15.343,15.343c1.562,1.562,4.095,1.562,5.657,0l21.645-21.645	C54.383,29.617,54.383,27.084,52.821,25.522z"></path><path fill="#98c900" d="M50,9L34.567,9.009L41,23l13,5.5V13C54,10.791,52.209,9,50,9z M47.5,18c-1.381,0-2.5-1.119-2.5-2.5	s1.119-2.5,2.5-2.5s2.5,1.119,2.5,2.5S48.881,18,47.5,18z"></path><path fill="#fff" d="M45,9c0,2.76-2.24,5-5,5h-4.101c-0.531,0-1.039,0.211-1.415,0.586L15.54,33.54	C14.56,34.51,13.28,35,12,35c-1.04,0-2.08-0.32-2.95-0.97c0.13-0.81,0.51-1.59,1.13-2.21l21.64-21.64	c0.75-0.75,1.727-1.141,2.707-1.171L45,9z" opacity=".3"></path><path d="M54,18v10.5l-0.02-0.01c-0.04,0.98-0.41,1.94-1.16,2.69L31.18,52.82	c-0.006,0.006-0.012,0.012-0.019,0.019c-1.021,1.008-2.849,0.406-3.091-1.008c-0.263-1.542,0.199-3.18,1.39-4.37l18.969-18.959	c0.353-0.353,0.552-0.831,0.553-1.331l0.008-4.18c0-2.76,2.24-4.99,5-4.99C53.99,18,53.99,18,54,18z" opacity=".15"></path><path fill="#fff" d="M28.5,20c-0.384,0-0.768-0.146-1.061-0.439c-0.586-0.585-0.586-1.536,0-2.121l4-4	c0.586-0.586,1.535-0.586,2.121,0c0.586,0.585,0.586,1.536,0,2.121l-4,4C29.268,19.854,28.884,20,28.5,20z"></path><path fill="#548500" d="M24.475,38.475c-0.291-0.291-0.433-0.629-0.428-1.015c0.007-0.387,0.149-0.72,0.429-1l0.99-0.99 c-0.605-0.693-1.075-1.37-1.411-2.032c-0.334-0.66-0.586-1.253-0.754-1.779c-0.158-0.47-0.133-0.887,0.075-1.25 c0.206-0.365,0.494-0.625,0.863-0.781c0.37-0.157,0.739-0.168,1.109-0.033c0.368,0.134,0.643,0.458,0.822,0.973 c0.123,0.415,0.35,0.937,0.679,1.569s0.843,1.296,1.537,1.99c0.772,0.772,1.443,1.197,2.013,1.275 c0.571,0.076,1.041-0.068,1.41-0.437c0.302-0.302,0.443-0.667,0.42-1.092c-0.022-0.426-0.264-0.99-0.72-1.696l-1.443-2.25 c-1.59-2.483-1.522-4.587,0.201-6.31c0.941-0.941,2.053-1.416,3.34-1.427c1.287-0.011,2.551,0.437,3.793,1.343l1.057-1.057 c0.28-0.28,0.613-0.422,1-0.429c0.385-0.002,0.724,0.14,1.014,0.431c0.28,0.28,0.417,0.613,0.411,0.999 c-0.005,0.388-0.149,0.72-0.429,1l-1.007,1.007c0.358,0.47,0.686,1,0.982,1.586c0.296,0.589,0.496,1.168,0.596,1.738 c0.101,0.437,0.052,0.817-0.15,1.142c-0.201,0.324-0.477,0.548-0.822,0.672c-0.347,0.123-0.695,0.106-1.041-0.052 c-0.347-0.156-0.609-0.503-0.789-1.041c-0.157-0.447-0.362-0.901-0.621-1.359c-0.256-0.459-0.648-0.951-1.174-1.477 c-0.649-0.649-1.292-1.024-1.93-1.124c-0.639-0.101-1.17,0.061-1.595,0.486c-0.302,0.302-0.441,0.66-0.419,1.075 c0.022,0.412,0.246,0.956,0.67,1.627l1.46,2.266c0.828,1.298,1.231,2.468,1.209,3.509c-0.023,1.039-0.447,1.974-1.276,2.803 c-0.951,0.951-2.056,1.411-3.315,1.384c-1.258-0.029-2.491-0.467-3.701-1.318l-1.057,1.057c-0.28,0.28-0.612,0.423-1,0.429 C25.088,38.892,24.755,38.755,24.475,38.475z"></path>
</svg>