<svg xmlns="http://www.w3.org/2000/svg" x="0px" y="0px" width="64" height="64" viewBox="0 0 64 64">
<path fill="#9c34c2" d="M48,5H16c-2.209,0-4,1.791-4,4v40c0,2.209,1.791,4,4,4h32c2.209,0,4-1.791,4-4V9	C52,6.791,50.209,5,48,5z"></path><path fill="#37d0ee" d="M45.129,10H18.871C17.838,10,17,10.838,17,11.871v10.258C17,23.162,17.838,24,18.871,24h26.258	C46.162,24,47,23.162,47,22.129V11.871C47,10.838,46.162,10,45.129,10z"></path><path fill="#fd3c4f" d="M45,35h-2c-1.105,0-2,0.895-2,2v9c0,1.105,0.895,2,2,2h2c1.105,0,2-0.895,2-2v-9	C47,35.895,46.105,35,45,35z"></path><path fill="#37d0ee" d="M20,43h-1c-1.105,0-2,0.895-2,2v1c0,1.105,0.895,2,2,2h1c1.105,0,2-0.895,2-2v-1	C22,43.895,21.105,43,20,43z"></path><path fill="#37d0ee" d="M28,43h-1c-1.105,0-2,0.895-2,2v1c0,1.105,0.895,2,2,2h1c1.105,0,2-0.895,2-2v-1	C30,43.895,29.105,43,28,43z"></path><path fill="#37d0ee" d="M36,43h-1c-1.105,0-2,0.895-2,2v1c0,1.105,0.895,2,2,2h1c1.105,0,2-0.895,2-2v-1	C38,43.895,37.105,43,36,43z"></path><path fill="#37d0ee" d="M20,35h-1c-1.105,0-2,0.895-2,2v1c0,1.105,0.895,2,2,2h1c1.105,0,2-0.895,2-2v-1	C22,35.895,21.105,35,20,35z"></path><path fill="#37d0ee" d="M28,35h-1c-1.105,0-2,0.895-2,2v1c0,1.105,0.895,2,2,2h1c1.105,0,2-0.895,2-2v-1	C30,35.895,29.105,35,28,35z"></path><path fill="#37d0ee" d="M36,35h-1c-1.105,0-2,0.895-2,2v1c0,1.105,0.895,2,2,2h1c1.105,0,2-0.895,2-2v-1	C38,35.895,37.105,35,36,35z"></path><path fill="#37d0ee" d="M20,27h-1c-1.105,0-2,0.895-2,2v1c0,1.105,0.895,2,2,2h1c1.105,0,2-0.895,2-2v-1	C22,27.895,21.105,27,20,27z"></path><path fill="#37d0ee" d="M28,27h-1c-1.105,0-2,0.895-2,2v1c0,1.105,0.895,2,2,2h1c1.105,0,2-0.895,2-2v-1	C30,27.895,29.105,27,28,27z"></path><path fill="#37d0ee" d="M36,27h-1c-1.105,0-2,0.895-2,2v1c0,1.105,0.895,2,2,2h1c1.105,0,2-0.895,2-2v-1	C38,27.895,37.105,27,36,27z"></path><path fill="#37d0ee" d="M45,27h-2c-1.105,0-2,0.895-2,2v1c0,1.105,0.895,2,2,2h2c1.105,0,2-0.895,2-2v-1	C47,27.895,46.105,27,45,27z"></path><ellipse cx="32" cy="61" opacity=".3" rx="19" ry="3"></ellipse><path fill="#fff" d="M16,5h11l0,0c0,2.761-2.239,5-5,5h-3c-1.105,0-2,0.895-2,2v7c0,2.761-2.239,5-5,5l0,0V9	C12,6.791,13.791,5,16,5z" opacity=".3"></path><path fill="#fff" d="M15.5,21c-0.828,0-1.5-0.672-1.5-1.5v-7c0-0.828,0.672-1.5,1.5-1.5c0.828,0,1.5,0.672,1.5,1.5v7	C17,20.328,16.328,21,15.5,21z"></path><circle cx="47.986" cy="44.002" r="12" fill="#ffce29"></circle><path d="M54.986,44.002c0,3.859-3.14,7-7,7c-2.402,0-4.405,1.695-4.886,3.953	c1.494,0.668,3.145,1.047,4.886,1.047c6.627,0,12-5.373,12-12c0-1.742-0.379-3.393-1.047-4.886	C56.681,39.597,54.986,41.6,54.986,44.002z" opacity=".15"></path><path fill="#da7200" d="M48.069,51.981c-0.29,0-0.53-0.098-0.719-0.293c-0.189-0.196-0.285-0.433-0.285-0.713v-0.988 c-0.647-0.044-1.22-0.147-1.717-0.309c-0.496-0.162-0.917-0.332-1.263-0.511c-0.313-0.155-0.508-0.376-0.586-0.661 c-0.079-0.285-0.065-0.559,0.041-0.82c0.106-0.263,0.285-0.452,0.537-0.57c0.251-0.117,0.549-0.093,0.895,0.075 c0.268,0.146,0.642,0.293,1.121,0.444c0.48,0.151,1.067,0.226,1.759,0.226c0.77,0,1.316-0.123,1.641-0.368 c0.323-0.247,0.485-0.553,0.485-0.921c0-0.301-0.112-0.553-0.335-0.754c-0.223-0.202-0.625-0.362-1.205-0.486l-1.842-0.402 c-2.032-0.446-3.047-1.529-3.047-3.247c0-0.939,0.318-1.731,0.954-2.378c0.636-0.647,1.491-1.055,2.562-1.222v-1.055 c0-0.279,0.095-0.516,0.285-0.713c0.189-0.195,0.429-0.293,0.719-0.293c0.279,0,0.514,0.098,0.703,0.293 c0.191,0.196,0.285,0.433,0.285,0.713v1.004c0.413,0.056,0.841,0.157,1.281,0.301c0.442,0.146,0.83,0.335,1.164,0.57 c0.268,0.168,0.433,0.382,0.495,0.645c0.061,0.262,0.035,0.511-0.075,0.745c-0.112,0.234-0.294,0.399-0.545,0.493 c-0.251,0.095-0.555,0.053-0.913-0.125c-0.301-0.144-0.63-0.268-0.988-0.368c-0.357-0.101-0.797-0.151-1.322-0.151 c-0.647,0-1.156,0.134-1.523,0.402c-0.369,0.268-0.553,0.615-0.553,1.038c0,0.301,0.109,0.549,0.327,0.745 c0.217,0.195,0.6,0.354,1.146,0.477l1.859,0.402c1.06,0.234,1.845,0.617,2.353,1.147c0.507,0.53,0.762,1.207,0.762,2.034 c0,0.948-0.322,1.729-0.963,2.344c-0.642,0.613-1.476,1.01-2.503,1.188v1.055c0,0.279-0.094,0.516-0.285,0.713 C48.583,51.882,48.348,51.981,48.069,51.981z"></path>
</svg>