<svg xmlns="http://www.w3.org/2000/svg" x="0px" y="0px" width="64" height="64" viewBox="0 0 64 64">
<ellipse cx="32" cy="61" opacity=".3" rx="20" ry="3"></ellipse><path fill="#37d0ee" d="M50.797,16.932l-3.729-3.729c-1.605-1.605-4.206-1.605-5.811,0L13.203,41.257	c-1.605,1.605-1.605,4.206,0,5.811l3.729,3.729c1.605,1.605,4.206,1.605,5.811,0l28.054-28.054	C52.401,21.138,52.401,18.537,50.797,16.932z"></path><path fill="#37d0ee" d="M47.068,50.797l3.729-3.729c1.605-1.605,1.605-4.206,0-5.811L22.743,13.203	c-1.605-1.605-4.206-1.605-5.811,0l-3.729,3.729c-1.605,1.605-1.605,4.206,0,5.811l28.054,28.054	C42.862,52.401,45.463,52.401,47.068,50.797z"></path><path fill="#fff" d="M20.47,16.74l-3.73,3.73c-0.98,0.97-2.26,1.46-3.54,1.46c-0.22,0-0.43-0.01-0.65-0.04	c-0.91-1.57-0.69-3.61,0.65-4.96l3.73-3.73c1.35-1.34,3.39-1.56,4.96-0.65C22.08,14.04,21.61,15.6,20.47,16.74z" opacity=".3"></path><path d="M50.8,47.07l-3.73,3.73c-1.35,1.34-3.38,1.56-4.95,0.65h-0.01c-0.19-1.49,0.28-3.05,1.42-4.19	l3.1-3.1l-4.67-4.66c-1.95-1.96-1.95-5.12,0-7.07h0.01l8.83,8.83C52.4,42.86,52.4,45.46,50.8,47.07z" opacity=".15"></path><path fill="#fff" d="M16.5,20c-0.384,0-0.768-0.146-1.061-0.439c-0.586-0.586-0.586-1.535,0-2.121l3-3	c0.586-0.586,1.535-0.586,2.121,0s0.586,1.535,0,2.121l-3,3C17.268,19.854,16.884,20,16.5,20z"></path>
</svg>