<svg xmlns="http://www.w3.org/2000/svg" x="0px" y="0px" width="64" height="64" viewBox="0 0 64 64">
<path fill="#37d0ee" d="M54,20v24c0,2.25-0.74,4.32-2,5.99V50c-1.69,2.24-4.29,3.75-7.25,3.97C44.51,53.99,44.25,54,44,54H20	c-5.52,0-10-4.48-10-10V20c0-0.25,0.01-0.51,0.03-0.75c0.22-2.96,1.73-5.56,3.97-7.25h0.01c1.67-1.26,3.74-2,5.99-2h24	C49.52,10,54,14.48,54,20z"></path><path fill="#fff" d="M14.01,12H14c-2.24,1.69-3.75,4.29-3.97,7.25C10.01,19.49,10,19.75,10,20v12	c2.761,0,5-2.239,5-5v-7c0-0.108,0.003-0.221,0.017-0.38c0.102-1.375,0.778-2.65,1.862-3.525c0.048-0.033,0.095-0.068,0.142-0.103	C17.881,15.343,18.911,15,20,15h6c2.761,0,5-2.239,5-5H20C17.75,10,15.68,10.74,14.01,12z" opacity=".3"></path><ellipse cx="32" cy="61" opacity=".3" rx="20" ry="3"></ellipse><path d="M54,44V22c-2.761,0-5,2.238-5,5v17c0,2.757-2.243,5-5,5H33c-2.761,0-5,2.238-5,5h16 C49.523,54,54,49.523,54,44z" opacity=".15"></path><path fill="none" stroke="#fff" stroke-linecap="round" stroke-linejoin="round" stroke-miterlimit="10" stroke-width="3" d="M13.5,23.5V20c0-0.153,0.005-0.312,0.018-0.459c0.135-1.809,1.003-3.46,2.396-4.594l0.204-0.152"></path><path fill="#9c34c2" d="M20,26.499V21c0-0.552,0.448-1,1-1h5.5c1.381,0,2.5-1.119,2.5-2.5v0c0-1.381-1.119-2.5-2.5-2.5h-7 c-2.485,0-4.5,2.015-4.5,4.5v6.999c0,1.381,1.119,2.5,2.5,2.5h0C18.881,28.999,20,27.879,20,26.499z"></path><path fill="#9c34c2" d="M44,26.499V21c0-0.552-0.448-1-1-1h-5.5c-1.381,0-2.5-1.119-2.5-2.5v0c0-1.381,1.119-2.5,2.5-2.5h7 c2.485,0,4.5,2.015,4.5,4.5v6.999c0,1.381-1.119,2.5-2.5,2.5h0C45.119,28.999,44,27.879,44,26.499z"></path><path fill="#9c34c2" d="M20,37.501V43c0,0.552,0.448,1,1,1h5.5c1.381,0,2.5,1.119,2.5,2.5v0c0,1.381-1.119,2.5-2.5,2.5h-7 c-2.485,0-4.5-2.015-4.5-4.5v-6.999c0-1.381,1.119-2.5,2.5-2.5h0C18.881,35.001,20,36.121,20,37.501z"></path><path fill="#9c34c2" d="M44,37.501V43c0,0.552-0.448,1-1,1h-5.5c-1.381,0-2.5,1.119-2.5,2.5v0c0,1.381,1.119,2.5,2.5,2.5h7 c2.485,0,4.5-2.015,4.5-4.5v-6.999c0-1.381-1.119-2.5-2.5-2.5h0C45.119,35.001,44,36.121,44,37.501z"></path>
</svg>