<svg xmlns="http://www.w3.org/2000/svg" x="0px" y="0px" width="48" height="48" viewBox="0 0 48 48">
<path d="M 23.998047 12.015625 C 22.944034 12.015662 21.890919 12.447641 21.152344 13.310547 L 6.953125 29.896484 C 4.9564984 32.228039 6.7099194 36.037109 9.7792969 36.037109 L 14.064453 36.037109 A 1.50015 1.50015 0 1 0 14.064453 33.037109 L 9.7792969 33.037109 C 9.0546743 33.037109 8.7590952 32.398101 9.2304688 31.847656 A 1.50015 1.50015 0 0 0 9.2324219 31.847656 L 23.431641 15.261719 C 23.748491 14.891531 24.250335 14.890573 24.568359 15.261719 L 27.076172 18.191406 A 1.5001889 1.5001889 0 0 0 29.355469 16.240234 L 26.845703 13.310547 C 26.106715 12.44812 25.05206 12.015588 23.998047 12.015625 z M 31.636719 19.753906 A 1.50015 1.50015 0 0 0 30.546875 22.244141 L 38.755859 31.832031 C 39.232169 32.388303 38.933468 33.037109 38.201172 33.037109 L 23.339844 33.037109 A 1.50015 1.50015 0 1 0 23.339844 36.037109 L 38.201172 36.037109 C 41.278875 36.037109 43.036846 32.218588 41.035156 29.880859 L 32.826172 20.292969 A 1.50015 1.50015 0 0 0 31.636719 19.753906 z"></path>
</svg>