<svg xmlns="http://www.w3.org/2000/svg" x="0px" y="0px" width="48" height="48" viewBox="0 0 48 48">
<path d="M 9.7792969 12 C 6.7099194 12 4.9564984 15.80907 6.953125 18.140625 L 12.019531 24.056641 A 1.50015 1.50015 0 1 0 14.296875 22.107422 L 9.2304688 16.189453 C 8.7590952 15.639008 9.0546743 15 9.7792969 15 L 27.617188 15 A 1.50015 1.50015 0 1 0 27.617188 12 L 9.7792969 12 z M 35.277344 12 A 1.50015 1.50015 0 1 0 35.277344 15 L 38.201172 15 C 38.933468 15 39.232169 15.648807 38.755859 16.205078 L 24.568359 32.775391 C 24.250335 33.146537 23.748491 33.147485 23.431641 32.777344 L 18.724609 27.279297 A 1.50015 1.50015 0 1 0 16.447266 29.230469 L 21.154297 34.726562 C 22.631447 36.452374 25.36968 36.453324 26.847656 34.728516 A 1.50015 1.50015 0 0 0 26.847656 34.726562 L 41.035156 18.15625 C 43.036846 15.818522 41.278875 12 38.201172 12 L 35.277344 12 z"></path>
</svg>