<svg xmlns="http://www.w3.org/2000/svg" x="0px" y="0px" width="64" height="64" viewBox="0 0 64 64">
<ellipse cx="32" cy="61" opacity=".3" rx="23" ry="3"></ellipse><path fill="#37d0ee" d="M40.911,33.377l4.634,1.986c0.406,0.174,0.886,0.071,1.173-0.265	c6.573-7.694,7.328-18.873,7.275-24.089c-0.017-1.66-1.356-2.989-3.016-3.006c-3.068-0.03-8.194,0.224-13.46,1.763	c-0.578,0.169-0.872,0.817-0.635,1.371l0.962,2.245c0.367,0.856-0.551,1.695-1.37,1.254l-4.296-2.313	c-0.3-0.162-0.663-0.166-0.963-0.004c-2.012,1.089-3.928,2.441-5.62,4.133c-15,15-14.596,34.546-14.596,34.546	s16.737-0.228,30.476-10.994c0.387-0.303,0.498-0.85,0.265-1.283l-2.118-3.933C39.167,33.943,40.03,32.999,40.911,33.377z"></path><line x1="38.954" x2="8.998" y1="23.042" y2="52.998" fill="none" stroke="#008aa9" stroke-linecap="round" stroke-linejoin="bevel" stroke-miterlimit="10" stroke-width="4"></line><path fill="#fff" d="M15.274,31.784c0.701,0.342,1.444,0.515,2.18,0.515c1.763,0,3.473-0.934,4.384-2.587 c1.982-3.596,4.436-6.868,7.291-9.723c0.492-0.492,1.027-0.963,1.601-1.411c0.625-0.488,1.484-0.557,2.183-0.181l0.976,0.525 c1.947,1.048,4.345,1.101,6.218-0.074c1.637-1.027,2.605-2.702,2.786-4.474c0.045-0.44,0.39-0.793,0.828-0.86 c0.7-0.107,1.413-0.199,2.136-0.273c2.662-0.274,4.6-2.593,4.461-5.235c-3.111,0.011-7.884,0.324-12.801,1.761 c-0.578,0.169-0.872,0.817-0.635,1.371l0.962,2.245c0.367,0.856-0.551,1.695-1.371,1.254l-4.296-2.313 c-0.3-0.162-0.663-0.166-0.963-0.004c-2.012,1.089-3.928,2.441-5.621,4.133C20.688,21.358,17.437,26.748,15.274,31.784z" opacity=".3"></path><path d="M47.783,21.775c-0.746,2.972-1.808,5.566-3.169,7.748l-1.733-0.743 c-2.349-1.005-5.081-0.416-6.805,1.468c-1.723,1.884-2.067,4.66-0.857,6.909l0.463,0.859c-3.231,2.133-6.859,3.89-10.822,5.237 c-2.545,0.866-3.92,3.579-3.172,6.134c5.812-1.444,13.147-4.182,19.786-9.384c0.387-0.303,0.498-0.85,0.265-1.283l-2.118-3.933 c-0.454-0.844,0.409-1.788,1.29-1.411l4.634,1.986c0.406,0.174,0.886,0.071,1.173-0.265c4.321-5.057,6.12-11.613,6.836-16.998 C50.977,17.614,48.43,19.196,47.783,21.775z" opacity=".15"></path><path fill="none" stroke="#fff" stroke-linecap="round" stroke-linejoin="round" stroke-miterlimit="10" stroke-width="3" d="M41.223,12.442c1.794-0.38,3.524-0.615,5.099-0.756"></path>
</svg>