<svg xmlns="http://www.w3.org/2000/svg" x="0px" y="0px" width="64" height="64" viewBox="0 0 64 64">
<ellipse cx="32" cy="61" opacity=".3" rx="20.125" ry="3"></ellipse><path fill="#37d0ee" d="M49.191,8.187c-0.645-0.347-1.452-0.179-1.976,0.332l-2.138,2.086	c-0.418,0.408-1.102,0.408-1.521,0.001l-2.208-2.15c-0.627-0.61-1.653-0.61-2.28,0l-2.207,2.149	c-0.418,0.407-1.103,0.407-1.521-0.001l-2.201-2.147c-0.627-0.612-1.654-0.612-2.281,0l-2.2,2.146c-0.418,0.408-1.103,0.408-1.521,0	l-2.199-2.145C24.638,8.165,24.227,8,23.797,8s-0.842,0.165-1.141,0.456l-2.2,2.146c-0.418,0.408-1.103,0.408-1.521,0l-2.117-2.065	c-0.529-0.516-1.345-0.703-1.995-0.35c-0.538,0.292-0.809,0.792-0.815,1.295L14,9.481V13v38c0,2.209,1.791,4,4,4h28	c2.209,0,4-1.791,4-4V14v-1V9.521C50.008,9.005,49.749,8.487,49.191,8.187z"></path><path fill="#fff" d="M14,43c2.761,0,5-2.238,5-5V16c0-2.762-2.239-5-5-5v2V43z" opacity=".3"></path><path d="M50,30c-2.761,0-5,2.238-5,5v14c0,0.552-0.448,1-1,1h-5c-2.761,0-5,2.238-5,5h12 c2.209,0,4-1.791,4-4V30z" opacity=".15"></path><path fill="#008aa9" d="M43,25H21c-1.105,0-2-0.895-2-2v0c0-1.105,0.895-2,2-2h22c1.105,0,2,0.895,2,2v0	C45,24.105,44.105,25,43,25z"></path><path fill="#008aa9" d="M21,34h14c1.105,0,2-0.895,2-2v0c0-1.105-0.895-2-2-2H21c-1.105,0-2,0.895-2,2v0	C19,33.105,19.895,34,21,34z"></path><path fill="#008aa9" d="M21,43h14c1.105,0,2-0.895,2-2v0c0-1.105-0.895-2-2-2H21c-1.105,0-2,0.895-2,2v0	C19,42.105,19.895,43,21,43z"></path><circle cx="43" cy="32" r="2" fill="#008aa9"></circle><circle cx="43" cy="41" r="2" fill="#008aa9"></circle><line x1="17.5" x2="17.5" y1="17.5" y2="21.5" fill="none" stroke="#fff" stroke-linecap="round" stroke-linejoin="round" stroke-miterlimit="10" stroke-width="3"></line>
</svg>