<svg xmlns="http://www.w3.org/2000/svg" x="0px" y="0px" width="64" height="64" viewBox="0 0 64 64">
<path fill="#fd3c4f" d="M44,10H20c-5.523,0-10,4.477-10,10v24c0,5.523,4.477,10,10,10h24c5.523,0,10-4.477,10-10V20	C54,14.477,49.523,10,44,10z"></path><ellipse cx="32" cy="61" opacity=".3" rx="19" ry="3"></ellipse><circle cx="43" cy="15" r="4" fill="#a61828"></circle><path fill="#4ccff1" d="M43,17c-1.657,0-3-1.343-3-3V8c0-1.657,1.343-3,3-3s3,1.343,3,3v6C46,15.657,44.657,17,43,17z"></path><path fill="#4ccff1" d="M54,44V22H10v22c0,5.523,4.477,10,10,10h24C49.523,54,54,49.523,54,44z"></path><circle cx="22" cy="15" r="4" fill="#a61828"></circle><path fill="#0089ad" d="M33,31h-2c-1.105,0-2-0.895-2-2v-2c0-1.105,0.895-2,2-2h2c1.105,0,2,0.895,2,2v2	C35,30.105,34.105,31,33,31z"></path><path fill="#0089ad" d="M43,31h-2c-1.105,0-2-0.895-2-2v-2c0-1.105,0.895-2,2-2h2c1.105,0,2,0.895,2,2v2	C45,30.105,44.105,31,43,31z"></path><path fill="#0089ad" d="M23,49h-2c-1.105,0-2-0.895-2-2v-2c0-1.105,0.895-2,2-2h2c1.105,0,2,0.895,2,2v2	C25,48.105,24.105,49,23,49z"></path><path fill="#0089ad" d="M33,49h-2c-1.105,0-2-0.895-2-2v-2c0-1.105,0.895-2,2-2h2c1.105,0,2,0.895,2,2v2	C35,48.105,34.105,49,33,49z"></path><path fill="#0089ad" d="M23,40h-2c-1.105,0-2-0.895-2-2v-2c0-1.105,0.895-2,2-2h2c1.105,0,2,0.895,2,2v2	C25,39.105,24.105,40,23,40z"></path><path fill="#0089ad" d="M33,40h-2c-1.105,0-2-0.895-2-2v-2c0-1.105,0.895-2,2-2h2c1.105,0,2,0.895,2,2v2	C35,39.105,34.105,40,33,40z"></path><path fill="#0089ad" d="M43,40h-2c-1.105,0-2-0.895-2-2v-2c0-1.105,0.895-2,2-2h2c1.105,0,2,0.895,2,2v2	C45,39.105,44.105,40,43,40z"></path><path fill="#fff" d="M30,15c2.762,0,5-2.239,5-5H20c-5.523,0-10,4.477-10,10v20c2.762,0,5-2.239,5-5V20 c0-2.757,2.243-5,5-5H30z" opacity=".3"></path><path d="M54,44V22c-2.762,0-5,2.239-5,5v17c0,2.757-2.243,5-5,5H34c-2.762,0-5,2.239-5,5h15 C49.523,54,54,49.523,54,44z" opacity=".15"></path><path fill="#4ccff1" d="M22,17c-1.657,0-3-1.343-3-3V8c0-1.657,1.343-3,3-3s3,1.343,3,3v6C25,15.657,23.657,17,22,17z"></path><line x1="14" x2="14" y1="25.978" y2="20" fill="none" stroke="#fff" stroke-linecap="round" stroke-miterlimit="10" stroke-width="3"></line>
</svg>