<svg xmlns="http://www.w3.org/2000/svg" x="0px" y="0px" width="64" height="64" viewBox="0 0 64 64">
<path fill="#37d0ee" d="M53,49.997H11c-2.209,0-4-1.791-4-4V19c0-2.209,1.791-4,4-4h42c2.209,0,4,1.791,4,4v26.997	C57,48.206,55.209,49.997,53,49.997z"></path><ellipse cx="32" cy="61.013" opacity=".3" rx="22.062" ry="3" transform="translate(-.423 .224)"></ellipse><rect width="50" height="6" x="7" y="22" fill="#CC5DE8B0"></rect><path fill="#a0effe" d="M47.5,37h-31c-1.381,0-2.5-1.119-2.5-2.5v0c0-1.381,1.119-2.5,2.5-2.5h31c1.381,0,2.5,1.119,2.5,2.5 v0C50,35.881,48.881,37,47.5,37z"></path><path d="M52,37v7.997H35c-2.762,0-5,2.239-5,5h23c2.209,0,4-1.791,4-4V32C54.238,32,52,34.239,52,37z" opacity=".15"></path><path fill="#fff" d="M7,19v17.997c2.762,0,5-2.239,5-5V20h17c2.762,0,5-2.239,5-5H11C8.791,15,7,16.791,7,19 z" opacity=".3"></path><path fill="none" stroke="#fff" stroke-linecap="round" stroke-linejoin="round" stroke-miterlimit="10" stroke-width="3" d="M10.5,26.5V19c0-0.276,0.225-0.5,0.5-0.5h2.5"></path>
</svg>