<!--?xml version="1.0" encoding="utf-8"?-->
<!-- Svg Vector Icons : http://www.onlinewebfonts.com/icon -->

<svg version="1.1" xmlns="http://www.w3.org/2000/svg" xmlns:xlink="http://www.w3.org/1999/xlink" x="0px" y="0px" viewBox="0 0 256 256" enable-background="new 0 0 256 256" xml:space="preserve">
<metadata> Svg Vector Icons : http://www.onlinewebfonts.com/icon </metadata>
<g><g><g><path fill="#FFFFFF" data-title="Layer 0" xs="0" d="M19.6,192.8c29.1,4.7,107,12.5,215.7-11.8c6.9-1.5,12.4,2.9,10.1,9.6c-6.4,19-30.1,52.5-118,49.2c-81-3.1-107.5-23.8-116.2-37.4C7.5,196.3,12.7,191.6,19.6,192.8z"/><path fill="#ffffff" data-title="Layer 1" xs="1" d="M137.7,178.7c18.2,0.7,51.9,0.6,76.7-6.9c6.8-2,11.5-10.3,10.2-17.3c-5.6-29.9-29-104.9-123.4-137.8c-6.7-2.3-9.2,1-5.9,7.2c11.9,22.6,36,77.3,31.1,141.3C125.7,172.4,130.6,178.5,137.7,178.7z"/><path fill="#ffffff" data-title="Layer 2" xs="2" d="M110.1,93.8c3.5,19,7.9,55.3-3.5,79.6c-3,6.4-12.6,10.7-19.7,10.7H52.8c-7.1,0-9-4.3-4.5-9.8c13.5-16.3,40-50.4,54.3-81.3C105.5,86.7,108.8,86.9,110.1,93.8z"/></g><g></g><g></g><g></g><g></g><g></g><g></g><g></g><g></g><g></g><g></g><g></g><g></g><g></g><g></g><g></g></g></g>
</svg>